<?xml version="1.0" encoding="UTF-8" standalone="no"?>
<!-- Created with Inkscape (http://www.inkscape.org/) -->

<svg
   xmlns:dc="http://purl.org/dc/elements/1.1/"
   xmlns:cc="http://creativecommons.org/ns#"
   xmlns:rdf="http://www.w3.org/1999/02/22-rdf-syntax-ns#"
   xmlns:svg="http://www.w3.org/2000/svg"
   xmlns="http://www.w3.org/2000/svg"
   xmlns:sodipodi="http://sodipodi.sourceforge.net/DTD/sodipodi-0.dtd"
   xmlns:inkscape="http://www.inkscape.org/namespaces/inkscape"
   width="2520"
   height="2992"
   viewBox="0 0 666.75002 791.63335"
   version="1.1"
   id="svg4995"
   sodipodi:docname="letsgetarrested3.svg"
   inkscape:export-filename="/mnt/tmpfs/letsgetarrested3.png"
   inkscape:export-xdpi="200"
   inkscape:export-ydpi="200"
   inkscape:version="0.92.2 5c3e80d, 2017-08-06">
  <defs
     id="defs4989" />
  <sodipodi:namedview
     id="base"
     pagecolor="#ffffff"
     bordercolor="#666666"
     borderopacity="1.0"
     inkscape:pageopacity="0.0"
     inkscape:pageshadow="2"
     inkscape:zoom="0.36000714"
     inkscape:cx="227.46073"
     inkscape:cy="1037.6553"
     inkscape:document-units="mm"
     inkscape:current-layer="g11213"
     showgrid="false"
     units="px" />
  <metadata
     id="metadata4992">
    <rdf:RDF>
      <cc:Work
         rdf:about="">
        <dc:format>image/svg+xml</dc:format>
        <dc:type
           rdf:resource="http://purl.org/dc/dcmitype/StillImage" />
        <dc:title />
      </cc:Work>
    </rdf:RDF>
  </metadata>
  <g
     inkscape:label="レイヤー 1"
     inkscape:groupmode="layer"
     id="layer1"
     transform="translate(0,494.63351)">
    <flowRoot
       xml:space="preserve"
       id="flowRoot5540"
       style="font-style:normal;font-variant:normal;font-weight:normal;font-stretch:normal;font-size:192px;line-height:125%;font-family:IPAexGothic;-inkscape-font-specification:IPAexGothic;letter-spacing:0px;word-spacing:0px;fill:#000000;fill-opacity:1;stroke:none;stroke-width:1px;stroke-linecap:butt;stroke-linejoin:miter;stroke-opacity:1"
       transform="matrix(0.29724291,0,0,0.29724291,-84.782049,-832.849)"><flowRegion
         id="flowRegion5542"
         style="font-size:192px"><rect
           id="rect5544"
           width="1091.4286"
           height="605.71429"
           x="900"
           y="834.85712"
           style="font-size:192px" /></flowRegion><flowPara
         id="flowPara5546" /></flowRoot>    <g
       id="g11195"
       transform="matrix(2.0392037,0,0,2.0392037,-134.95814,275.34338)"
       inkscape:export-xdpi="200"
       inkscape:export-ydpi="200">
      <rect
         y="-288.95636"
         x="66.181786"
         height="210.94572"
         width="210.94572"
         id="rect5608"
         style="opacity:1;fill:#073642;fill-opacity:1;fill-rule:nonzero;stroke:none;stroke-width:0.4941124;stroke-linecap:round;stroke-linejoin:round;stroke-miterlimit:4;stroke-dasharray:none;stroke-dashoffset:0;stroke-opacity:1" />
      <flowRoot
         transform="matrix(0.25106616,0,0,0.25106616,-51.614693,-542.12443)"
         style="font-style:normal;font-variant:normal;font-weight:normal;font-stretch:normal;font-size:16px;line-height:2.5ex;font-family:IPAexGothic;-inkscape-font-specification:IPAexGothic;letter-spacing:0px;word-spacing:0px;fill:#839496;fill-opacity:1;stroke:none;stroke-width:1px;stroke-linecap:butt;stroke-linejoin:miter;stroke-opacity:1"
         id="flowRoot5548"
         xml:space="preserve"><flowRegion
           style="line-height:2.5ex;fill:#839496;fill-opacity:1"
           id="flowRegion5550"><rect
             style="line-height:2.5ex;fill:#839496;fill-opacity:1"
             y="1097.7142"
             x="517.14288"
             height="1848.5714"
             width="3545.7144"
             id="rect5552" /></flowRegion><flowPara
           style="font-style:normal;font-variant:normal;font-weight:normal;font-stretch:normal;font-size:192px;line-height:2.29999995ex;font-family:'Ubuntu Mono';-inkscape-font-specification:'Ubuntu Mono';text-align:justify;text-anchor:start;fill:#839496;fill-opacity:1"
           id="flowPara5554"><flowSpan
   id="flowSpan8754"
   style="line-height:2.29999995ex;text-align:justify;letter-spacing:-1.10661542px;text-anchor:start;fill:#839496;fill-opacity:1">#</flowSpan><flowSpan
   style="line-height:2.29999995ex;text-align:justify;letter-spacing:-11.42607307px;text-anchor:start;fill:#839496;fill-opacity:1"
   id="flowSpan6502">L</flowSpan><flowSpan
   id="flowSpan5834"
   style="line-height:2.29999995ex;text-align:justify;letter-spacing:-6.43555975px;text-anchor:start;fill:#839496;fill-opacity:1">E</flowSpan><flowSpan
   style="line-height:2.29999995ex;text-align:justify;letter-spacing:-12.21037292px;text-anchor:start;fill:#839496;fill-opacity:1"
   id="flowSpan6504">T</flowSpan><flowSpan
   id="flowSpan5960"
   style="line-height:2.29999995ex;text-align:justify;letter-spacing:26.85959625px;text-anchor:start;fill:#839496;fill-opacity:1">S</flowSpan><flowSpan
   id="flowSpan6506"
   style="line-height:2.29999995ex;text-align:justify;letter-spacing:-8.74011326px;text-anchor:start;fill:#839496;fill-opacity:1">G</flowSpan><flowSpan
   style="line-height:2.29999995ex;text-align:justify;letter-spacing:-6.29051781px;text-anchor:start;fill:#839496;fill-opacity:1"
   id="flowSpan8190">E</flowSpan>T</flowPara><flowPara
           style="font-style:normal;font-variant:normal;font-weight:normal;font-stretch:normal;font-size:192px;line-height:2.29999995ex;font-family:'Ubuntu Mono';-inkscape-font-specification:'Ubuntu Mono';text-align:justify;text-anchor:start;fill:#839496;fill-opacity:1"
           id="flowPara5556"><flowSpan
   id="flowSpan10794"
   style="line-height:2.29999995ex;text-align:justify;letter-spacing:7.06407356px;text-anchor:start;fill:#839496;fill-opacity:1">A</flowSpan><flowSpan
   id="flowSpan6930"
   style="line-height:2.29999995ex;text-align:justify;letter-spacing:3.41654062px;text-anchor:start;fill:#839496;fill-opacity:1">R</flowSpan><flowSpan
   id="flowSpan8756"
   style="line-height:2.29999995ex;text-align:justify;letter-spacing:-2.34215689px;text-anchor:start;fill:#839496;fill-opacity:1">R</flowSpan><flowSpan
   style="line-height:2.29999995ex;text-align:justify;letter-spacing:-2.52480221px;text-anchor:start;fill:#839496;fill-opacity:1"
   id="flowSpan10792">E</flowSpan><flowSpan
   id="flowSpan6646"
   style="line-height:2.29999995ex;text-align:justify;letter-spacing:-8.35870647px;text-anchor:start;fill:#839496;fill-opacity:1">S</flowSpan><flowSpan
   style="line-height:2.29999995ex;text-align:justify;letter-spacing:-10.60416889px;text-anchor:start;fill:#839496;fill-opacity:1"
   id="flowSpan6784">T</flowSpan><flowSpan
   id="flowSpan6842"
   style="line-height:2.29999995ex;text-align:justify;letter-spacing:-5.22687721px;text-anchor:start;fill:#839496;fill-opacity:1">E</flowSpan>D</flowPara><flowPara
           style="font-style:normal;font-variant:normal;font-weight:normal;font-stretch:normal;font-size:192px;line-height:2.29999995ex;font-family:'Ubuntu Mono';-inkscape-font-specification:'Ubuntu Mono';text-align:justify;text-anchor:start;fill:#839496;fill-opacity:1"
           id="flowPara5558"><flowSpan
   id="flowSpan7296"
   style="line-height:2.29999995ex;text-align:justify;letter-spacing:42.97535324px;text-anchor:start;fill:#839496;fill-opacity:1">4</flowSpan><flowSpan
   id="flowSpan7300"
   style="line-height:2.29999995ex;text-align:justify;letter-spacing:7.23060369px;text-anchor:start;fill:#839496;fill-opacity:1">JSC</flowSpan><flowSpan
   style="line-height:2.29999995ex;text-align:justify;letter-spacing:12.0008688px;text-anchor:start;fill:#839496;fill-opacity:1"
   id="flowSpan8752">O</flowSpan><flowSpan
   style="line-height:2.29999995ex;text-align:justify;letter-spacing:1.56860042px;text-anchor:start;fill:#839496;fill-opacity:1"
   id="flowSpan8652">D</flowSpan>E</flowPara></flowRoot>    </g>
    <flowRoot
       xml:space="preserve"
       id="flowRoot5560"
       style="font-style:normal;font-variant:normal;font-weight:normal;font-stretch:normal;font-size:192px;line-height:125%;font-family:IPAexGothic;-inkscape-font-specification:IPAexGothic;letter-spacing:0px;word-spacing:0px;fill:#000000;fill-opacity:1;stroke:none;stroke-width:1px;stroke-linecap:butt;stroke-linejoin:miter;stroke-opacity:1"
       transform="matrix(0.29724291,0,0,0.29724291,-84.782049,-832.849)"><flowRegion
         id="flowRegion5562"
         style="font-size:192px"><rect
           id="rect5564"
           width="662.85712"
           height="200"
           x="325.71429"
           y="714.85712"
           style="font-size:192px" /></flowRegion><flowPara
         id="flowPara5566" /></flowRoot>    <flowRoot
       xml:space="preserve"
       id="flowRoot5568"
       style="font-style:normal;font-variant:normal;font-weight:normal;font-stretch:normal;font-size:16px;line-height:125%;font-family:IPAexGothic;-inkscape-font-specification:IPAexGothic;letter-spacing:0px;word-spacing:0px;fill:#000000;fill-opacity:1;stroke:none;stroke-width:1px;stroke-linecap:butt;stroke-linejoin:miter;stroke-opacity:1"
       transform="matrix(0.29724291,0,0,0.29724291,-84.782049,-832.849)"><flowRegion
         id="flowRegion5570"><rect
           id="rect5572"
           width="121.42857"
           height="52.857143"
           x="497.14285"
           y="516.28571" /></flowRegion><flowPara
         id="flowPara5574" /></flowRoot>    <flowRoot
       xml:space="preserve"
       id="flowRoot5770"
       style="font-style:normal;font-variant:normal;font-weight:normal;font-stretch:normal;font-size:16px;line-height:125%;font-family:IPAexGothic;-inkscape-font-specification:IPAexGothic;letter-spacing:0px;word-spacing:0px;fill:#000000;fill-opacity:1;stroke:none;stroke-width:1px;stroke-linecap:butt;stroke-linejoin:miter;stroke-opacity:1"
       transform="matrix(0.32560114,0,0,0.32560114,-124.43941,-914.2289)"><flowRegion
         id="flowRegion5772"><rect
           id="rect5774"
           width="60"
           height="18.571428"
           x="238.57143"
           y="1063.4286" /></flowRegion><flowPara
         id="flowPara5776" /></flowRoot>    <flowRoot
       xml:space="preserve"
       id="flowRoot5826"
       style="font-style:normal;font-variant:normal;font-weight:normal;font-stretch:normal;font-size:16px;line-height:125%;font-family:IPAexGothic;-inkscape-font-specification:IPAexGothic;letter-spacing:0px;word-spacing:0px;fill:#000000;fill-opacity:1;stroke:none;stroke-width:1px;stroke-linecap:butt;stroke-linejoin:miter;stroke-opacity:1"
       transform="matrix(1.2306183,0,0,1.2306183,-66.296373,-305.52381)"><flowRegion
         id="flowRegion5828"><rect
           id="rect5830"
           width="567.14288"
           height="30"
           x="1015.7143"
           y="1202" /></flowRegion><flowPara
         id="flowPara5832" /></flowRoot>    <flowRoot
       xml:space="preserve"
       id="flowRoot9310"
       style="font-style:normal;font-variant:normal;font-weight:normal;font-stretch:normal;font-size:16px;line-height:125%;font-family:IPAexGothic;-inkscape-font-specification:IPAexGothic;letter-spacing:0px;word-spacing:0px;fill:#000000;fill-opacity:1;stroke:none;stroke-width:1px;stroke-linecap:butt;stroke-linejoin:miter;stroke-opacity:1"
       transform="matrix(1.2306183,0,0,1.2306183,-66.296373,-305.52381)"><flowRegion
         id="flowRegion9312"><rect
           id="rect9314"
           width="94.285713"
           height="38.57143"
           x="1818.5714"
           y="1850.5714" /></flowRegion><flowPara
         id="flowPara9316" /></flowRoot>    <flowRoot
       xml:space="preserve"
       id="flowRoot10410"
       style="font-style:normal;font-variant:normal;font-weight:normal;font-stretch:normal;font-size:16px;line-height:125%;font-family:IPAexGothic;-inkscape-font-specification:IPAexGothic;letter-spacing:0px;word-spacing:0px;fill:#000000;fill-opacity:1;stroke:none;stroke-width:1px;stroke-linecap:butt;stroke-linejoin:miter;stroke-opacity:1"
       transform="matrix(1.2306183,0,0,1.2306183,-66.296373,-305.52381)"><flowRegion
         id="flowRegion10412"><rect
           id="rect10414"
           width="18.571323"
           height="35.714336"
           x="2210"
           y="1463.4286" /></flowRegion><flowPara
         id="flowPara10416" /></flowRoot>    <g
       id="g11213"
       transform="matrix(0.5817411,0,0,0.5817411,273.74169,70.60026)">
      <rect
         y="-291.22421"
         x="305.8537"
         height="369.71884"
         width="369.71884"
         id="rect5608-6"
         style="opacity:1;fill:#073642;fill-opacity:1;fill-rule:nonzero;stroke:none;stroke-width:0.86601746;stroke-linecap:round;stroke-linejoin:round;stroke-miterlimit:4;stroke-dasharray:none;stroke-dashoffset:0;stroke-opacity:1" />
      <flowRoot
         transform="matrix(0.7971617,0,0,0.7971617,-80.801196,-1128.9431)"
         style="font-style:normal;font-variant:normal;font-weight:normal;font-stretch:normal;font-size:16px;line-height:2.5ex;font-family:IPAexGothic;-inkscape-font-specification:IPAexGothic;letter-spacing:0px;word-spacing:0px;fill:#657b83;fill-opacity:1;stroke:none;stroke-width:1px;stroke-linecap:butt;stroke-linejoin:miter;stroke-opacity:1"
         id="flowRoot5548-8"
         xml:space="preserve"><flowRegion
           style="line-height:2.5ex;fill:#657b83;fill-opacity:1"
           id="flowRegion5550-0"><rect
             style="line-height:2.5ex;fill:#657b83;fill-opacity:1"
             y="1097.7142"
             x="517.14288"
             height="1848.5714"
             width="3545.7144"
             id="rect5552-8" /></flowRegion><flowPara
           style="font-style:normal;font-variant:normal;font-weight:normal;font-stretch:normal;font-size:63.15595627px;line-height:2.29999995ex;font-family:'Ubuntu Mono';-inkscape-font-specification:'Ubuntu Mono';text-align:justify;text-anchor:start;fill:#657b83;fill-opacity:1"
           id="flowPara5558-6">&lt;<flowSpan
   id="flowSpan11132"
   style="fill:#268bd2;fill-opacity:1">script</flowSpan>&gt;</flowPara><flowPara
           id="flowPara11124"
           style="font-style:normal;font-variant:normal;font-weight:normal;font-stretch:normal;font-size:63.15595627px;line-height:2.29999995ex;font-family:'Ubuntu Mono';-inkscape-font-specification:'Ubuntu Mono';text-align:justify;text-anchor:start;fill:#657b83;fill-opacity:1"><flowSpan
   id="flowSpan11136"
   style="fill:#859900;fill-opacity:1">while</flowSpan> (<flowSpan
   id="flowSpan11154"
   style="fill:#93a1a1;fill-opacity:1">1</flowSpan>) {</flowPara><flowPara
           id="flowPara11126"
           style="font-style:normal;font-variant:normal;font-weight:normal;font-stretch:normal;font-size:63.15595627px;line-height:2.29999995ex;font-family:'Ubuntu Mono';-inkscape-font-specification:'Ubuntu Mono';text-align:justify;text-anchor:start;fill:#657b83;fill-opacity:1"><flowSpan
   id="flowSpan11140"
   style="fill:#b58900;fill-opacity:1">  alert</flowSpan>(<flowSpan
   id="flowSpan11142"
   style="fill:#2aa198;fill-opacity:1">&quot;!&quot;</flowSpan>)<flowSpan
   id="flowSpan11150"
   style="fill:#b58900;fill-opacity:1">;</flowSpan></flowPara><flowPara
           id="flowPara11128"
           style="font-style:normal;font-variant:normal;font-weight:normal;font-stretch:normal;font-size:63.15595627px;line-height:2.29999995ex;font-family:'Ubuntu Mono';-inkscape-font-specification:'Ubuntu Mono';text-align:justify;text-anchor:start;fill:#657b83;fill-opacity:1">}</flowPara><flowPara
           id="flowPara11130"
           style="font-style:normal;font-variant:normal;font-weight:normal;font-stretch:normal;font-size:63.15595627px;line-height:2.29999995ex;font-family:'Ubuntu Mono';-inkscape-font-specification:'Ubuntu Mono';text-align:justify;text-anchor:start;fill:#657b83;fill-opacity:1">&lt;/<flowSpan
   id="flowSpan11134"
   style="fill:#268bd2;fill-opacity:1">script</flowSpan>&gt;</flowPara></flowRoot>    </g>
    <g
       id="QRcode"
       transform="matrix(2.7584061,0,0,2.7584061,451.66936,-222.38593)">
      <rect
         id="rect12641"
         height="37"
         width="37"
         y="0"
         x="0"
         style="fill:#073642" />
      <path
         id="path12643"
         d="m 0,0 h 1 m 0,0 h 1 m 0,0 h 1 m 0,0 h 1 m 0,0 h 1 m 0,0 h 1 m 0,0 h 1 m 1,0 h 1 m 0,0 h 1 m 0,0 h 1 m 0,0 h 1 m 2,0 h 1 m 1,0 h 1 m 0,0 h 1 m 4,0 h 1 m 0,0 h 1 m 0,0 h 1 m 0,0 h 1 m 0,0 h 1 m 0,0 h 1 m 0,0 h 1 M 0,1 h 1 m 5,0 h 1 m 4,0 h 1 m 0,0 h 1 m 0,0 h 1 m 5,0 h 1 m 2,0 h 1 m 5,0 h 1 M 0,2 h 1 m 1,0 h 1 m 0,0 h 1 m 0,0 h 1 m 1,0 h 1 m 2,0 h 1 m 1,0 h 1 m 1,0 h 1 m 0,0 h 1 m 0,0 h 1 m 3,0 h 1 m 0,0 h 1 m 1,0 h 1 m 1,0 h 1 m 0,0 h 1 m 0,0 h 1 m 1,0 h 1 M 0,3 h 1 m 1,0 h 1 m 0,0 h 1 m 0,0 h 1 m 1,0 h 1 m 3,0 h 1 m 0,0 h 1 m 1,0 h 1 m 3,0 h 1 m 1,0 h 1 m 0,0 h 1 m 1,0 h 1 m 1,0 h 1 m 0,0 h 1 m 0,0 h 1 m 1,0 h 1 M 0,4 h 1 m 1,0 h 1 m 0,0 h 1 m 0,0 h 1 m 1,0 h 1 m 3,0 h 1 m 0,0 h 1 m 0,0 h 1 m 1,0 h 1 m 1,0 h 1 m 1,0 h 1 m 0,0 h 1 m 2,0 h 1 m 1,0 h 1 m 0,0 h 1 m 0,0 h 1 m 1,0 h 1 M 0,5 h 1 m 5,0 h 1 m 2,0 h 1 m 1,0 h 1 m 6,0 h 1 m 1,0 h 1 m 1,0 h 1 m 5,0 h 1 M 0,6 h 1 m 0,0 h 1 m 0,0 h 1 m 0,0 h 1 m 0,0 h 1 m 0,0 h 1 m 0,0 h 1 m 1,0 h 1 m 1,0 h 1 m 1,0 h 1 m 1,0 h 1 m 1,0 h 1 m 1,0 h 1 m 1,0 h 1 m 1,0 h 1 m 0,0 h 1 m 0,0 h 1 m 0,0 h 1 m 0,0 h 1 m 0,0 h 1 m 0,0 h 1 M 8,7 h 1 m 0,0 h 1 m 2,0 h 1 m 0,0 h 1 m 2,0 h 1 m 2,0 h 1 m 0,0 h 1 M 0,8 h 1 m 0,0 h 1 m 1,0 h 1 m 0,0 h 1 m 1,0 h 1 m 2,0 h 1 m 2,0 h 1 m 1,0 h 1 m 0,0 h 1 m 0,0 h 1 m 0,0 h 1 m 1,0 h 1 m 2,0 h 1 m 5,0 h 1 M 0,9 h 1 m 1,0 h 1 m 1,0 h 1 m 3,0 h 1 m 1,0 h 1 m 4,0 h 1 m 2,0 h 1 m 0,0 h 1 m 1,0 h 1 m 1,0 h 1 m 0,0 h 1 m 1,0 h 1 m 0,0 h 1 M 2,10 h 1 m 0,0 h 1 m 2,0 h 1 m 0,0 h 1 m 0,0 h 1 m 0,0 h 1 m 2,0 h 1 m 0,0 h 1 m 0,0 h 1 m 0,0 h 1 m 0,0 h 1 m 0,0 h 1 m 0,0 h 1 m 1,0 h 1 m 2,0 h 1 m 0,0 h 1 m 1,0 h 1 M 0,11 h 1 m 0,0 h 1 m 1,0 h 1 m 0,0 h 1 m 10,0 h 1 m 1,0 h 1 m 3,0 h 1 m 0,0 h 1 m 0,0 h 1 m 1,0 h 1 m 2,0 h 1 M 0,12 h 1 m 0,0 h 1 m 1,0 h 1 m 2,0 h 1 m 0,0 h 1 m 0,0 h 1 m 0,0 h 1 m 0,0 h 1 m 4,0 h 1 m 0,0 h 1 m 3,0 h 1 m 1,0 h 1 m 0,0 h 1 m 4,0 h 1 M 0,13 h 1 m 0,0 h 1 m 1,0 h 1 m 3,0 h 1 m 0,0 h 1 m 0,0 h 1 m 0,0 h 1 m 1,0 h 1 m 0,0 h 1 m 1,0 h 1 m 0,0 h 1 m 0,0 h 1 m 4,0 h 1 m 0,0 h 1 m 0,0 h 1 m 0,0 h 1 m 0,0 h 1 m 0,0 h 1 m 0,0 h 1 M 0,14 h 1 m 2,0 h 1 m 1,0 h 1 m 0,0 h 1 m 0,0 h 1 m 1,0 h 1 m 5,0 h 1 m 1,0 h 1 m 0,0 h 1 m 0,0 h 1 m 0,0 h 1 m 0,0 h 1 m 0,0 h 1 m 1,0 h 1 m 1,0 h 1 m 1,0 h 1 M 1,15 h 1 m 0,0 h 1 m 1,0 h 1 m 3,0 h 1 m 3,0 h 1 m 1,0 h 1 m 3,0 h 1 m 0,0 h 1 m 3,0 h 1 m 0,0 h 1 m 1,0 h 1 m 1,0 h 1 M 0,16 h 1 m 0,0 h 1 m 4,0 h 1 m 4,0 h 1 m 0,0 h 1 m 0,0 h 1 m 5,0 h 1 m 0,0 h 1 m 0,0 h 1 m 3,0 h 1 M 0,17 h 1 m 0,0 h 1 m 0,0 h 1 m 0,0 h 1 m 0,0 h 1 m 2,0 h 1 m 0,0 h 1 m 1,0 h 1 m 0,0 h 1 m 3,0 h 1 m 0,0 h 1 m 0,0 h 1 m 1,0 h 1 m 4,0 h 1 m 1,0 h 1 m 0,0 h 1 M 0,18 h 1 m 0,0 h 1 m 4,0 h 1 m 1,0 h 1 m 3,0 h 1 m 0,0 h 1 m 1,0 h 1 m 1,0 h 1 m 1,0 h 1 m 4,0 h 1 m 0,0 h 1 m 2,0 h 1 M 0,19 h 1 m 0,0 h 1 m 1,0 h 1 m 3,0 h 1 m 1,0 h 1 m 0,0 h 1 m 0,0 h 1 m 1,0 h 1 m 1,0 h 1 m 3,0 h 1 m 2,0 h 1 m 2,0 h 1 m 0,0 h 1 M 0,20 h 1 m 0,0 h 1 m 0,0 h 1 m 2,0 h 1 m 0,0 h 1 m 1,0 h 1 m 2,0 h 1 m 0,0 h 1 m 1,0 h 1 m 0,0 h 1 m 1,0 h 1 m 0,0 h 1 m 1,0 h 1 m 0,0 h 1 m 0,0 h 1 m 0,0 h 1 m 0,0 h 1 m 0,0 h 1 m 0,0 h 1 m 0,0 h 1 M 8,21 h 1 m 0,0 h 1 m 0,0 h 1 m 1,0 h 1 m 2,0 h 1 m 1,0 h 1 m 0,0 h 1 m 1,0 h 1 m 3,0 h 1 m 0,0 h 1 M 0,22 h 1 m 0,0 h 1 m 0,0 h 1 m 0,0 h 1 m 0,0 h 1 m 0,0 h 1 m 0,0 h 1 m 2,0 h 1 m 1,0 h 1 m 0,0 h 1 m 0,0 h 1 m 0,0 h 1 m 0,0 h 1 m 3,0 h 1 m 0,0 h 1 m 1,0 h 1 m 1,0 h 1 m 0,0 h 1 M 0,23 h 1 m 5,0 h 1 m 2,0 h 1 m 0,0 h 1 m 0,0 h 1 m 2,0 h 1 m 2,0 h 1 m 1,0 h 1 m 0,0 h 1 m 3,0 h 1 m 2,0 h 1 m 0,0 h 1 M 0,24 h 1 m 1,0 h 1 m 0,0 h 1 m 0,0 h 1 m 1,0 h 1 m 1,0 h 1 m 0,0 h 1 m 0,0 h 1 m 0,0 h 1 m 0,0 h 1 m 2,0 h 1 m 3,0 h 1 m 0,0 h 1 m 0,0 h 1 m 0,0 h 1 m 0,0 h 1 m 0,0 h 1 m 0,0 h 1 M 0,25 h 1 m 1,0 h 1 m 0,0 h 1 m 0,0 h 1 m 1,0 h 1 m 1,0 h 1 m 0,0 h 1 m 0,0 h 1 m 0,0 h 1 m 1,0 h 1 m 1,0 h 1 m 0,0 h 1 m 0,0 h 1 m 0,0 h 1 m 2,0 h 1 m 6,0 h 1 M 0,26 h 1 m 1,0 h 1 m 0,0 h 1 m 0,0 h 1 m 1,0 h 1 m 3,0 h 1 m 2,0 h 1 m 0,0 h 1 m 0,0 h 1 m 4,0 h 1 m 0,0 h 1 m 1,0 h 1 m 0,0 h 1 m 1,0 h 1 m 0,0 h 1 m 0,0 h 1 M 0,27 h 1 m 5,0 h 1 m 1,0 h 1 m 1,0 h 1 m 3,0 h 1 m 3,0 h 1 m 3,0 h 1 m 0,0 h 1 m 1,0 h 1 m 0,0 h 1 m 1,0 h 1 M 0,28 h 1 m 0,0 h 1 m 0,0 h 1 m 0,0 h 1 m 0,0 h 1 m 0,0 h 1 m 0,0 h 1 m 1,0 h 1 m 1,0 h 1 m 0,0 h 1 m 0,0 h 1 m 0,0 h 1 m 1,0 h 1 m 3,0 h 1 m 0,0 h 1 m 1,0 h 1 m 1,0 h 1"
         transform="translate(4,4.5)"
         style="stroke:#839496"
         inkscape:connector-curvature="0" />
    </g>
  </g>
</svg>
